<svg width="27" height="11" viewBox="0 0 27 11" fill="none" xmlns="http://www.w3.org/2000/svg">
<path d="M2.04339 1.86014L2.35021 2.60878H1.33771L1.63839 1.86014L1.84089 1.36923L2.04339 1.86014Z" fill="#212B36"/>
<path fill-rule="evenodd" clip-rule="evenodd" d="M23.4532 0.939721V0.000857082H25.4843V4.60313H23.5759L23.0052 3.71336V4.60313H20.25L19.9616 3.91586H19.348L19.0902 4.60313H17.4764C16.9868 4.61828 16.5058 4.47163 16.108 4.18586V4.60313H13.4018L12.7514 3.78086V4.60313H2.45455L2.16 3.91586H1.54636L1.28864 4.60313H0V3.89131H0.828409L1.09841 3.22858H2.60182L2.87182 3.89131H3.73705L2.37477 0.712672H1.36841L0 3.89131V2.09949L0.895909 0.000857082H2.73682L3.26455 1.18518V0.000857082H5.52273L5.84795 1.01336L6.19773 0.000857082H16.108V0.467221C16.5094 0.15157 17.0088 -0.0134425 17.5193 0.000857082H20.5445L21.0845 1.18518V0.000857082H22.8395L23.4532 0.939721ZM7.07526 3.89131H7.8239L7.76867 0.712672H6.5414L5.92776 2.55358L5.82958 2.90335L5.72526 2.55358L5.11163 0.712672H3.88435V3.89131H4.62072V1.80495V1.32017L4.79867 1.80495L5.52276 3.89131H6.19776L6.92799 1.80495L7.07526 1.32017V1.80495V3.89131ZM10.9656 1.38767H9.20448V1.96449H10.9227V2.62722H9.20448V3.24085H10.984V3.91585H8.41903V0.712672H10.9656V1.38767ZM12.6041 2.75605L13.5491 3.89128H14.5064L13.4509 2.71924C13.9543 2.6592 14.3292 2.22579 14.3162 1.71901C14.3195 1.43356 14.2006 1.1603 13.9896 0.968047C13.7786 0.775789 13.4955 0.682854 13.2116 0.712646H11.475V3.89128H12.2727V2.75605H12.6041ZM15.4576 3.89131H14.6905V0.712672H15.4576V3.89131ZM17.3843 3.89129H17.4334L17.7341 3.21629H17.5009C17.2665 3.22907 17.0385 3.13712 16.8785 2.96528C16.7185 2.79344 16.643 2.55945 16.6725 2.32652V2.28357C16.6472 2.0521 16.7243 1.82114 16.8835 1.65127C17.0428 1.48141 17.2683 1.3896 17.5009 1.39993H18.3232V0.712658H17.4334C17.0129 0.685788 16.6016 0.844231 16.3078 1.14632C16.0139 1.44841 15.867 1.86391 15.9055 2.28357V2.32652C15.8598 2.73867 15.9977 3.15004 16.2825 3.45141C16.5673 3.75278 16.9703 3.91365 17.3843 3.89129ZM20.6795 3.89131L20.4095 3.22858H18.9061L18.6361 3.89131H17.7954L19.1577 0.712672H20.1764L21.5264 3.89131H20.6795ZM23.8276 3.89131H24.7296V0.712672H23.9749V2.78676L23.7601 2.42472L22.631 0.712672H21.6921V3.89131H22.4469V1.74972L22.6555 2.09949L23.8276 3.89131ZM19.8389 1.86022L20.1396 2.60886H19.1394L19.4339 1.86022L19.6364 1.36931L19.8389 1.86022ZM12.2728 1.3877H13.1441C13.2466 1.37161 13.351 1.40101 13.43 1.46822C13.509 1.53543 13.5547 1.63375 13.5553 1.73747C13.5581 1.83885 13.516 1.93632 13.4403 2.00377C13.3646 2.07122 13.2629 2.10178 13.1625 2.08725H12.2728V1.3877Z" fill="#212B36"/>
<path fill-rule="evenodd" clip-rule="evenodd" d="M26.9999 6.72628H25.3615C25.0862 6.69522 24.8105 6.78119 24.6016 6.96321C24.3928 7.14524 24.2699 7.40659 24.2631 7.68356C24.2466 7.94719 24.3482 8.2045 24.5402 8.38587C24.7322 8.56723 24.9949 8.6539 25.2572 8.62242H25.9813C26.1406 8.62242 26.2697 8.75154 26.2697 8.91083C26.2697 9.07011 26.1406 9.19924 25.9813 9.19924H24.3551V9.87424H25.9751C26.4152 9.92059 26.833 9.67044 26.9999 9.2606V10.3345C26.6902 10.5248 26.3325 10.6228 25.969 10.6167H17.1817L16.519 9.79446V10.6413H14.586V9.47537C14.3143 9.56217 14.0306 9.60566 13.7454 9.60424H13.4263V10.6167H10.5851L10.1126 9.92947L9.634 10.6167H4.98877V6.01447H9.65854L10.131 6.68947L10.6097 6.01447H26.9999V6.72628ZM26.7298 7.40131H25.3369C25.2578 7.39441 25.1796 7.42107 25.1212 7.47478C25.0628 7.52848 25.0297 7.60426 25.03 7.68358C25.0282 7.76443 25.0603 7.84236 25.1186 7.89836C25.177 7.95437 25.2562 7.98331 25.3369 7.97812H26.0671C26.4576 7.93511 26.8315 8.14805 26.9937 8.50585V6.74472L26.7298 7.40131ZM8.27172 7.40131H6.49217V7.97813H8.24104V8.64086H6.49217V9.2545H8.27172V9.9295H5.72513V6.72631H8.27172V7.40131ZM10.1247 8.88018L10.8857 9.90495H11.8613L10.5727 8.30336L11.8491 6.72631H10.9102L10.1309 7.72654L9.3577 6.72631H8.39429L9.67065 8.31563L8.40656 9.90495H9.33315L10.1247 8.88018ZM13.7209 8.85565H12.7636V9.90496H11.9966V6.72633H13.7454C14.0334 6.70189 14.3182 6.8009 14.5288 6.9987C14.7395 7.19649 14.8562 7.47446 14.85 7.76337C14.8652 8.06402 14.7498 8.35658 14.5335 8.56588C14.3171 8.77519 14.0209 8.88082 13.7209 8.85565ZM16.3717 8.7636L17.3167 9.90496H18.274L17.2185 8.73291C17.7435 8.63573 18.1028 8.14758 18.0396 7.61742C17.9764 7.08726 17.5123 6.6973 16.9792 6.72632H15.2549V9.90496H16.0219V8.7636H16.3717ZM20.9985 7.40131H19.219V7.97813H20.9556V8.64086H19.2374V9.2545H21.0169V9.9295H18.4581V6.72631H21.0169L20.9985 7.40131ZM21.422 9.90497H23.0174H23.0358C23.3197 9.93525 23.6028 9.84123 23.8122 9.64713C24.0216 9.45304 24.1368 9.17785 24.1281 8.89247C24.1434 8.63231 24.0414 8.37897 23.8501 8.20196C23.6588 8.02495 23.3984 7.94284 23.1401 7.97815H22.4038C22.3231 7.98334 22.2439 7.9544 22.1856 7.89839C22.1272 7.84239 22.0951 7.76446 22.097 7.68361C22.0967 7.60429 22.1297 7.52851 22.1881 7.4748C22.2465 7.4211 22.3248 7.39444 22.4038 7.40133H23.7722L24.0729 6.72633H22.4283C22.1478 6.69476 21.8671 6.78474 21.6572 6.97355C21.4473 7.16236 21.3281 7.43196 21.3299 7.71429C21.3135 7.97792 21.415 8.23523 21.607 8.4166C21.7991 8.59797 22.0617 8.68463 22.324 8.65315H23.0481C23.2074 8.65315 23.3365 8.78228 23.3365 8.94156C23.3365 9.10085 23.2074 9.22997 23.0481 9.22997H21.422V9.90497ZM16.881 7.4013H16.0219V8.10084H16.9117C17.0099 8.11502 17.1095 8.08604 17.1848 8.02135C17.26 7.95667 17.3037 7.86259 17.3044 7.76334C17.3088 7.66052 17.2677 7.56097 17.1921 7.49121C17.1164 7.42146 17.0138 7.38856 16.9117 7.4013H16.881ZM12.7635 7.40134H13.641H13.6717C13.779 7.3921 13.8849 7.43028 13.9616 7.50581C14.0383 7.58135 14.0781 7.68667 14.0706 7.79407C14.0743 7.89986 14.033 8.00227 13.957 8.07595C13.881 8.14962 13.7773 8.18767 13.6717 8.18066H12.7635V7.40134Z" fill="#212B36"/>
</svg>
