<svg width="55" height="57" viewBox="0 0 55 57" fill="none" xmlns="http://www.w3.org/2000/svg">
<g clip-path="url(#clip0_5_1520)">
<path d="M46.9333 11.438C46.5185 11.438 46.106 11.286 45.776 10.9725C40.7183 6.194 34.2283 3.5625 27.5 3.5625C20.7716 3.5625 14.2816 6.194 9.22392 10.9749C8.52038 11.6375 7.43413 11.5829 6.79475 10.8585C6.15538 10.1318 6.20579 9.00362 6.90704 8.341C12.6018 2.96162 19.9145 0 27.5 0C35.0854 0 42.3981 2.96162 48.0929 8.341C48.7941 9.00362 48.8445 10.1294 48.2052 10.8585C47.866 11.2432 47.4008 11.438 46.9333 11.438Z" fill="white"/>
<path d="M49.8437 23.0779C49.2914 23.0779 48.746 22.8024 48.416 22.2894C43.6448 14.9269 35.8256 10.5308 27.5 10.5308C19.1743 10.5308 11.3552 14.9269 6.58392 22.2894C6.05455 23.1088 4.98434 23.3273 4.1983 22.7763C3.40997 22.2276 3.19913 21.1209 3.72851 20.3039C9.13913 11.9558 18.0262 6.97064 27.5 6.97064C36.9737 6.97064 45.8608 11.9558 51.2714 20.3063C51.8008 21.1233 51.5923 22.23 50.8016 22.7786C50.5083 22.9805 50.176 23.0779 49.8437 23.0779Z" fill="white"/>
<path d="M22.071 57C21.6287 57 21.1864 56.8243 20.8495 56.4728C20.4737 56.0809 11.6668 46.7638 11.6668 37.7934C11.6668 28.4834 18.7687 20.9095 27.4999 20.9095C36.2312 20.9095 43.3331 28.4834 43.3331 37.7934C43.3331 38.7766 42.5631 39.5746 41.6143 39.5746C40.6656 39.5746 39.8956 38.7766 39.8956 37.7934C39.8956 30.4475 34.336 24.472 27.4999 24.472C20.6639 24.472 15.1043 30.4475 15.1043 37.7934C15.1043 45.315 23.2099 53.8793 23.2924 53.9648C23.9616 54.663 23.957 55.7911 23.281 56.4846C22.9464 56.829 22.5087 57 22.071 57Z" fill="white"/>
<path d="M32.929 57C28.7949 57 19.2111 48.849 18.283 39.7718C17.9553 36.5631 18.9407 33.2809 20.9161 30.9914C22.6349 29.0011 24.9563 27.8968 27.4519 27.8825H27.5001C29.9338 27.8825 32.2346 28.8729 33.9855 30.6755C35.8142 32.5589 36.8203 35.0883 36.8203 37.7958V38.9571C36.8203 41.819 38.9699 44.1465 41.6144 44.1465C44.259 44.1465 46.4109 41.819 46.4109 38.9571V38.551C46.4109 27.4598 38.6582 18.2329 28.7605 17.5489C23.5996 17.1855 18.6497 19.0333 14.8294 22.7335C10.8649 26.5763 8.59153 32.0673 8.59153 37.7958C8.59153 42.5078 10.1315 47.0986 12.9274 50.7229C13.5186 51.4924 13.3994 52.611 12.6569 53.2261C11.9167 53.8413 10.8351 53.7154 10.2392 52.9459C6.95986 48.6923 5.15173 43.3105 5.15173 37.7934C5.15173 31.0816 7.82382 24.643 12.4782 20.1305C16.9997 15.7463 22.8617 13.566 28.9851 13.9912C40.6817 14.801 49.8461 25.5883 49.8461 38.5487V38.9548C49.8461 43.7808 46.1519 47.7066 41.6121 47.7066C37.0724 47.7066 33.3805 43.7808 33.3805 38.9548V37.7934C33.3805 36.0406 32.7342 34.4114 31.5609 33.2001C30.4609 32.0649 29.0194 31.4426 27.5001 31.4426C27.4886 31.4426 27.4794 31.4426 27.468 31.4426C25.5315 31.4522 24.2276 32.4948 23.4759 33.3664C22.1353 34.9173 21.4707 37.1735 21.6976 39.3965C22.4561 46.8018 30.6671 53.4399 32.9267 53.4399C33.8755 53.4399 34.6455 54.2379 34.6455 55.2211C34.6455 56.2044 33.8778 57 32.929 57Z" fill="white"/>
<path d="M39.3066 53.5159C33.1558 53.5159 25.646 45.7259 25.646 36.632C25.646 35.6488 26.416 34.8508 27.3647 34.8508C28.3135 34.8508 29.0835 35.6488 29.0835 36.632C29.0835 43.681 34.8012 49.9534 39.3066 49.9534C40.2554 49.9534 41.0254 50.7514 41.0254 51.7346C41.0254 52.7179 40.2554 53.5159 39.3066 53.5159Z" fill="white"/>
</g>
<defs>
<clipPath id="clip0_5_1520">
<rect width="55" height="57" fill="white"/>
</clipPath>
</defs>
</svg>
