<svg width="30" height="30" viewBox="0 0 30 30" fill="none" xmlns="http://www.w3.org/2000/svg">
<path d="M7.60823 26.9572L7.23503 27.8172L7.60823 26.9572ZM4.22575 23.4136L3.35393 23.7583L4.22575 23.4136ZM25.7742 23.4136L26.6461 23.7583L25.7742 23.4136ZM22.3918 26.9572L22.765 27.8172L22.3918 26.9572ZM3.75 14.3306L4.68382 14.4136L4.7297 13.8972L4.31671 13.5838L3.75 14.3306ZM24.375 8.70558V7.76808H24.375L24.375 8.70558ZM15.9597 7.31694L16.6226 7.97985L15.9597 7.31694ZM18.6114 4.66529L19.2743 5.3282V5.3282L18.6114 4.66529ZM23.0308 4.66529L22.3679 5.3282V5.3282L23.0308 4.66529ZM23.3544 8.70556L23.3544 9.64306L23.8329 9.64303L24.1136 9.25557L23.3544 8.70556ZM14.2364 7.31696L13.5735 7.97987L14.2364 7.31696ZM11.5847 4.66531L10.9218 5.32822V5.32822L11.5847 4.66531ZM7.16531 4.66531L7.82822 5.32822L7.82822 5.32822L7.16531 4.66531ZM15 26.2056H15.9375H15ZM3.7094 14.2998L3.13423 15.0401H3.13423L3.7094 14.2998ZM26.1692 14.3895L25.6303 13.6223L26.1692 14.3895ZM13.125 26.5181C11.6555 26.5181 10.6026 26.5175 9.77212 26.4582C8.951 26.3995 8.41828 26.2867 7.98142 26.0972L7.23503 27.8172C7.94675 28.126 8.71635 28.2625 9.63844 28.3284C10.5512 28.3936 11.6824 28.3931 13.125 28.3931V26.5181ZM2.81254 17.6342C2.81254 19.1473 2.81207 20.327 2.87397 21.2776C2.93637 22.2359 3.06501 23.0276 3.35393 23.7583L5.09758 23.0689C4.91074 22.5964 4.80153 22.0238 4.74501 21.1558C4.68799 20.2802 4.68754 19.1718 4.68754 17.6342H2.81254ZM7.98142 26.0972C6.6863 25.5351 5.64397 24.4508 5.09758 23.0689L3.35393 23.7583C4.07621 25.5851 5.4673 27.0501 7.23503 27.8172L7.98142 26.0972ZM25.3125 17.6341C25.3125 19.1718 25.312 20.2802 25.255 21.1558C25.1985 22.0237 25.0893 22.5964 24.9024 23.0689L26.6461 23.7583C26.935 23.0276 27.0636 22.2359 27.126 21.2776C27.188 20.327 27.1875 19.1473 27.1875 17.6341H25.3125ZM16.875 28.3931C18.3176 28.3931 19.4488 28.3936 20.3616 28.3284C21.2837 28.2625 22.0533 28.126 22.765 27.8172L22.0186 26.0972C21.5817 26.2867 21.049 26.3995 20.2279 26.4582C19.3974 26.5175 18.3445 26.5181 16.875 26.5181V28.3931ZM24.9024 23.0689C24.356 24.4508 23.3137 25.5351 22.0186 26.0972L22.765 27.8172C24.5327 27.0501 25.9238 25.5851 26.6461 23.7583L24.9024 23.0689ZM4.68754 17.6342C4.68754 15.7926 4.6022 15.3322 4.68382 14.4136L2.81618 14.2476C2.72596 15.2631 2.81254 16.0268 2.81254 17.6342H4.68754ZM24.375 9.64308C25.5831 9.64308 26.5625 10.6225 26.5625 11.8306H28.4375C28.4375 9.58692 26.6187 7.76808 24.375 7.76808V9.64308ZM5.625 7.76808C3.38134 7.76808 1.5625 9.58692 1.5625 11.8306H3.4375C3.4375 10.6225 4.41688 9.64308 5.625 9.64308V7.76808ZM16.6226 7.97985L19.2743 5.3282L17.9484 4.00238L15.2968 6.65403L16.6226 7.97985ZM19.2743 5.3282C20.1285 4.47393 21.5136 4.47393 22.3679 5.3282L23.6937 4.00238C22.1072 2.41587 19.535 2.41587 17.9484 4.00238L19.2743 5.3282ZM15.2968 6.65403C14.9049 7.04597 14.3058 7.68383 14.0952 8.46015L15.9048 8.95104C15.9702 8.71008 16.2158 8.38668 16.6226 7.97985L15.2968 6.65403ZM22.3679 5.3282C23.1378 6.09814 23.2143 7.30098 22.5952 8.15554L24.1136 9.25557C25.2646 7.66672 25.1254 5.43406 23.6937 4.00238L22.3679 5.3282ZM14.8993 6.65405L12.2476 4.0024L10.9218 5.32822L13.5735 7.97987L14.8993 6.65405ZM12.2476 4.0024C10.6611 2.41589 8.0889 2.41589 6.5024 4.0024L7.82822 5.32822C8.68249 4.47395 10.0675 4.47395 10.9218 5.32822L12.2476 4.0024ZM13.5735 7.97987C13.8248 8.23121 13.9862 8.54927 14.0952 8.95104L15.9048 8.46015C15.7378 7.84463 15.4467 7.20147 14.8993 6.65405L13.5735 7.97987ZM6.5024 4.0024C5.07071 5.43408 4.93145 7.66674 6.08252 9.25559L7.60092 8.15556C6.98182 7.301 7.05828 6.09816 7.82822 5.32822L6.5024 4.0024ZM14.0625 8.7056L14.0625 26.2056H15.9375L15.9375 8.7056H14.0625ZM6.84172 9.64308L15 9.6431L15 7.7681L6.84172 7.76808L6.84172 9.64308ZM5.625 14.0181C5.11871 14.0181 4.65497 13.8472 4.28458 13.5595L3.13423 15.0401C3.82197 15.5744 4.68759 15.8931 5.625 15.8931V14.0181ZM4.28458 13.5595C3.76743 13.1577 3.4375 12.5329 3.4375 11.8306H1.5625C1.5625 13.1363 2.17959 14.2984 3.13423 15.0401L4.28458 13.5595ZM4.31671 13.5838L4.27612 13.553L3.14269 15.0466L3.18329 15.0774L4.31671 13.5838ZM16.875 26.5181H15V28.3931H16.875V26.5181ZM15 26.5181H13.125V28.3931H15V26.5181ZM14.0625 26.2056L14.0625 27.4556L15.9375 27.4556L15.9375 26.2056L14.0625 26.2056ZM24.375 14.0181H15V15.8931H24.375V14.0181ZM15 14.0181H5.625V15.8931H15V14.0181ZM26.5625 11.8306C26.5625 12.5705 26.196 13.225 25.6303 13.6223L26.7081 15.1566C27.7521 14.4233 28.4375 13.207 28.4375 11.8306H26.5625ZM25.6303 13.6223C25.2752 13.8718 24.8436 14.0181 24.375 14.0181V15.8931C25.2418 15.8931 26.0477 15.6206 26.7081 15.1566L25.6303 13.6223ZM27.1875 17.6341C27.1875 15.953 27.1881 15.2898 27.1033 14.3087L25.2352 14.4703C25.3119 15.3564 25.3125 15.9369 25.3125 17.6341H27.1875ZM15 9.6431L23.0308 9.64308L23.0308 7.76808L15 7.7681L15 9.6431ZM23.0308 9.64308L23.3544 9.64306L23.3543 7.76806L23.0307 7.76808L23.0308 9.64308ZM23.0308 9.64308L24.375 9.64308L24.375 7.76808L23.0308 7.76808L23.0308 9.64308ZM6.84172 7.76808H5.625V9.64308H6.84172V7.76808ZM5.625 9.64308L10.3125 9.64309L10.3125 7.76809L5.625 7.76808L5.625 9.64308ZM10.3125 9.64309L15 9.6431L15 7.7681L10.3125 7.76809L10.3125 9.64309ZM6.84172 9.64308L10.3125 9.64309L10.3125 7.76809L6.84172 7.76808L6.84172 9.64308ZM15 9.6431L23.3544 9.64306L23.3544 7.76806L15 7.7681L15 9.6431Z" fill="#999EA1"/>
</svg>
