<svg width="35" height="19" viewBox="0 0 35 19" fill="none" xmlns="http://www.w3.org/2000/svg">
<path d="M1.70814 9.05365C1.6916 9.03514 1.67569 9.01725 1.66039 9C1.67569 8.98275 1.6916 8.96486 1.70814 8.94635C1.92287 8.70592 2.2412 8.36063 2.65205 7.94544C3.47431 7.11452 4.66431 6.00652 6.13364 4.89932C9.0838 2.67626 13.1022 0.5 17.5 0.5C21.8978 0.5 25.9162 2.67626 28.8664 4.89932C30.3357 6.00652 31.5257 7.11452 32.3479 7.94544C32.7588 8.36063 33.0771 8.70592 33.2919 8.94635C33.3084 8.96486 33.3243 8.98275 33.3396 9C33.3243 9.01725 33.3084 9.03514 33.2919 9.05365C33.0771 9.29408 32.7588 9.63937 32.3479 10.0546C31.5257 10.8855 30.3357 11.9935 28.8664 13.1007C25.9162 15.3237 21.8978 17.5 17.5 17.5C13.1022 17.5 9.0838 15.3237 6.13364 13.1007C4.66431 11.9935 3.47431 10.8855 2.65205 10.0546C2.2412 9.63937 1.92287 9.29408 1.70814 9.05365Z" stroke="#A6A6A6"/>
<path d="M24.5 8.69999C24.5 12.1962 21.4061 15.1 17.5 15.1C13.5939 15.1 10.5 12.1962 10.5 8.69999C10.5 5.2038 13.5939 2.29999 17.5 2.29999C21.4061 2.29999 24.5 5.2038 24.5 8.69999Z" stroke="#A6A6A6"/>
<path d="M20.9 8.70002C20.9 10.2064 19.5539 11.5 17.8 11.5C16.0461 11.5 14.7 10.2064 14.7 8.70002C14.7 7.19369 16.0461 5.90002 17.8 5.90002C19.5539 5.90002 20.9 7.19369 20.9 8.70002Z" fill="#A6A6A6" stroke="#A6A6A6"/>
<line x1="34.2339" y1="0.441894" x2="0.233943" y2="18.4419" stroke="#A6A6A6"/>
</svg>
