<svg width="30" height="30" viewBox="0 0 30 30" fill="none" xmlns="http://www.w3.org/2000/svg">
<path d="M15.9375 22.2746C15.9375 21.7568 15.5178 21.3371 15 21.3371C14.4822 21.3371 14.0625 21.7568 14.0625 22.2746V24.7746C14.0625 25.2923 14.4822 25.7121 15 25.7121C15.5178 25.7121 15.9375 25.2923 15.9375 24.7746V22.2746Z" fill="#999EA1"/>
<path fill-rule="evenodd" clip-rule="evenodd" d="M15.2635 1.56733C15.0879 1.56089 14.9121 1.56089 14.7365 1.56733C13.5773 1.60986 12.5335 2.00404 11.3889 2.66022C10.2736 3.29967 8.98956 4.2326 7.36033 5.41631L7.27177 5.48066C5.64252 6.66436 4.35845 7.59728 3.40563 8.46043C2.4279 9.34616 1.73044 10.2171 1.33178 11.3064C1.27139 11.4715 1.21707 11.6386 1.16893 11.8076C0.851153 12.9233 0.903482 14.0378 1.17387 15.3291C1.43737 16.5874 1.92784 18.0969 2.55017 20.0122L2.584 20.1163C3.20629 22.0316 3.69676 23.5411 4.22322 24.714C4.76346 25.9176 5.37625 26.8501 6.28908 27.5659C6.42736 27.6743 6.56958 27.7776 6.71543 27.8756C7.63381 28.4927 8.65541 28.7894 9.88727 28.9386C11.1977 29.0974 12.8361 29.0973 14.9373 29.0973H15.0627C17.1639 29.0973 18.8023 29.0974 20.1128 28.9386C21.3446 28.7894 22.3662 28.4927 23.2846 27.8756C23.4304 27.7776 23.5727 27.6743 23.7109 27.5659C24.6238 26.8501 25.2366 25.9176 25.7768 24.714C26.3033 23.5411 26.7937 22.0316 27.416 20.1163L27.4499 20.0122C28.0722 18.097 28.5627 16.5874 28.8261 15.3291C29.0965 14.0378 29.1489 12.9233 28.8311 11.8076C28.7829 11.6386 28.7286 11.4715 28.6682 11.3064C28.2696 10.2171 27.5721 9.34616 26.5944 8.46043C25.6416 7.59728 24.3575 6.66436 22.7282 5.48065L22.6397 5.41629C21.0104 4.23259 19.7264 3.29967 18.6111 2.66022C17.4666 2.00404 16.4227 1.60986 15.2635 1.56733ZM14.8053 3.44107C14.935 3.43631 15.065 3.43631 15.1948 3.44107C15.9391 3.46838 16.6804 3.71459 17.6785 4.28684C18.6957 4.87004 19.8986 5.74245 21.5819 6.9654C23.2651 8.18835 24.4666 9.06282 25.3356 9.85003C26.1882 10.6225 26.6515 11.2514 26.9074 11.9508C26.9521 12.0728 26.9922 12.1964 27.0278 12.3213C27.2318 13.0376 27.2268 13.8187 26.9909 14.9448C26.7506 16.0924 26.2926 17.5061 25.6497 19.4849C25.0068 21.4636 24.5464 22.8765 24.0662 23.9462C23.5951 24.9959 23.1401 25.6308 22.554 26.0904C22.4518 26.1705 22.3466 26.2469 22.2388 26.3193C21.8694 26.5676 21.455 26.7519 20.9375 26.8864V22.2746C20.9375 18.9954 18.2792 16.3371 15 16.3371C11.7208 16.3371 9.06251 18.9954 9.06251 22.2746V26.8864C8.54506 26.7519 8.1306 26.5676 7.76117 26.3193C7.65337 26.2469 7.54825 26.1705 7.44605 26.0904C6.85995 25.6308 6.40495 24.9959 5.93381 23.9462C5.45366 22.8765 4.99325 21.4636 4.35031 19.4849C3.70737 17.5061 3.24938 16.0924 3.00907 14.9448C2.77326 13.8187 2.76817 13.0376 2.9722 12.3213C3.00778 12.1964 3.04793 12.0728 3.09257 11.9508C3.34854 11.2514 3.81178 10.6225 4.66446 9.85003C5.53345 9.06282 6.73489 8.18835 8.41813 6.9654C10.1014 5.74245 11.3043 4.87004 12.3215 4.28684C13.3197 3.71459 14.061 3.46838 14.8053 3.44107ZM15 18.2121C17.2437 18.2121 19.0625 20.0309 19.0625 22.2746V27.1522C18.0083 27.2213 16.7041 27.2223 15 27.2223C13.2959 27.2223 11.9918 27.2213 10.9375 27.1522V22.2746C10.9375 20.0309 12.7564 18.2121 15 18.2121Z" fill="#999EA1"/>
</svg>
