<svg width="27" height="17" viewBox="0 0 27 17" fill="none" xmlns="http://www.w3.org/2000/svg">
<rect x="9.49223" y="1.78552" width="8.03031" height="13.1191" fill="#F26122"/>
<path d="M10.3574 8.34505C10.3441 5.79166 11.5039 3.37353 13.5034 1.78552C10.0823 -0.904916 5.16791 -0.514235 2.21482 2.68294C-0.738272 5.88011 -0.738272 10.81 2.21482 14.0072C5.16791 17.2043 10.0823 17.595 13.5034 14.9046C11.5039 13.3166 10.3441 10.8984 10.3574 8.34505Z" fill="#EA1D25"/>
<path d="M27 8.34508C26.998 11.5378 25.1744 14.4495 22.3028 15.8451C19.4313 17.2408 16.0151 16.8756 13.5034 14.9046C17.1214 12.0558 17.748 6.81475 14.9034 3.19341C14.4956 2.66902 14.0255 2.19625 13.5034 1.78555C16.0151 -0.185462 19.4313 -0.550603 22.3028 0.845012C25.1744 2.24063 26.998 5.15234 27 8.34508V8.34508Z" fill="#F69E1E"/>
</svg>
