<svg width="23" height="24" viewBox="0 0 23 24" fill="none" xmlns="http://www.w3.org/2000/svg">
<path d="M9.06604 13.75C9.06604 14.72 9.78179 15.5 10.6598 15.5H12.4539C13.2173 15.5 13.8376 14.82 13.8376 13.97C13.8376 13.06 13.4559 12.73 12.8929 12.52L10.0204 11.47C9.45731 11.26 9.07559 10.94 9.07559 10.02C9.07559 9.18 9.69588 8.49001 10.4593 8.49001H12.2535C13.1314 8.49001 13.8472 9.27001 13.8472 10.24" stroke="#000C14" stroke-width="1.5" stroke-linecap="round" stroke-linejoin="round"/>
<path d="M11.4518 7.5V16.5" stroke="#000C14" stroke-width="1.5" stroke-linecap="round" stroke-linejoin="round"/>
<path d="M20.995 12C20.995 17.52 16.7197 22 11.4518 22C6.18398 22 1.90863 17.52 1.90863 12C1.90863 6.48 6.18398 2 11.4518 2" stroke="#000C14" stroke-width="1.5" stroke-linecap="round" stroke-linejoin="round"/>
<path d="M16.2234 3V7H20.0407" stroke="#000C14" stroke-width="1.5" stroke-linecap="round" stroke-linejoin="round"/>
<path d="M20.995 2L16.2234 7" stroke="#000C14" stroke-width="1.5" stroke-linecap="round" stroke-linejoin="round"/>
</svg>
