<svg width="18" height="18" viewBox="0 0 18 18" fill="none" xmlns="http://www.w3.org/2000/svg">
<g clip-path="url(#clip0_1_835)">
<path d="M16.5 8.99997C16.5 13.1421 13.1421 16.5 8.99998 16.5C4.85785 16.5 1.49998 13.1421 1.49998 8.99997C1.49998 4.85783 4.85785 1.49997 8.99998 1.49997C13.1421 1.49997 16.5 4.85783 16.5 8.99997Z" stroke="white" stroke-width="1.125"/>
<path d="M6.75 8.99994C6.75 9.41415 6.41421 9.74994 6 9.74994C5.58579 9.74994 5.25 9.41415 5.25 8.99994C5.25 8.58573 5.58579 8.24994 6 8.24994C6.41421 8.24994 6.75 8.58573 6.75 8.99994Z" fill="white"/>
<path d="M9.75 8.99994C9.75 9.41415 9.41421 9.74994 9 9.74994C8.58579 9.74994 8.25 9.41415 8.25 8.99994C8.25 8.58573 8.58579 8.24994 9 8.24994C9.41421 8.24994 9.75 8.58573 9.75 8.99994Z" fill="white"/>
<path d="M12.75 8.99994C12.75 9.41415 12.4142 9.74994 12 9.74994C11.5858 9.74994 11.25 9.41415 11.25 8.99994C11.25 8.58573 11.5858 8.24994 12 8.24994C12.4142 8.24994 12.75 8.58573 12.75 8.99994Z" fill="white"/>
</g>
<defs>
<clipPath id="clip0_1_835">
<rect width="18" height="18" fill="white"/>
</clipPath>
</defs>
</svg>
