<svg width="30" height="30" viewBox="0 0 30 30" fill="none" xmlns="http://www.w3.org/2000/svg">
<path d="M19.0625 7.5C19.0625 9.74366 17.2437 11.5625 15 11.5625V13.4375C18.2792 13.4375 20.9375 10.7792 20.9375 7.5H19.0625ZM15 11.5625C12.7563 11.5625 10.9375 9.74366 10.9375 7.5H9.0625C9.0625 10.7792 11.7208 13.4375 15 13.4375V11.5625ZM10.9375 7.5C10.9375 5.25634 12.7563 3.4375 15 3.4375V1.5625C11.7208 1.5625 9.0625 4.22081 9.0625 7.5H10.9375ZM15 3.4375C17.2437 3.4375 19.0625 5.25634 19.0625 7.5H20.9375C20.9375 4.22081 18.2792 1.5625 15 1.5625V3.4375ZM11.25 17.1875H18.75V15.3125H11.25V17.1875ZM18.75 25.3125H11.25V27.1875H18.75V25.3125ZM11.25 25.3125C9.00634 25.3125 7.1875 23.4937 7.1875 21.25H5.3125C5.3125 24.5292 7.97081 27.1875 11.25 27.1875V25.3125ZM22.8125 21.25C22.8125 23.4937 20.9937 25.3125 18.75 25.3125V27.1875C22.0292 27.1875 24.6875 24.5292 24.6875 21.25H22.8125ZM18.75 17.1875C20.9937 17.1875 22.8125 19.0063 22.8125 21.25H24.6875C24.6875 17.9708 22.0292 15.3125 18.75 15.3125V17.1875ZM11.25 15.3125C7.97081 15.3125 5.3125 17.9708 5.3125 21.25H7.1875C7.1875 19.0063 9.00634 17.1875 11.25 17.1875V15.3125Z" fill="#999EA1"/>
</svg>
