<svg width="33" height="18" viewBox="0 0 33 18" fill="none" xmlns="http://www.w3.org/2000/svg">
<path d="M0.708139 9.05365C0.691604 9.03514 0.675685 9.01725 0.660387 9C0.675685 8.98275 0.691604 8.96486 0.708139 8.94635C0.922873 8.70592 1.2412 8.36063 1.65205 7.94544C2.47431 7.11452 3.66431 6.00652 5.13364 4.89932C8.0838 2.67626 12.1022 0.5 16.5 0.5C20.8978 0.5 24.9162 2.67626 27.8664 4.89932C29.3357 6.00652 30.5257 7.11452 31.3479 7.94544C31.7588 8.36063 32.0771 8.70592 32.2919 8.94635C32.3084 8.96486 32.3243 8.98275 32.3396 9C32.3243 9.01725 32.3084 9.03514 32.2919 9.05365C32.0771 9.29408 31.7588 9.63937 31.3479 10.0546C30.5257 10.8855 29.3357 11.9935 27.8664 13.1007C24.9162 15.3237 20.8978 17.5 16.5 17.5C12.1022 17.5 8.0838 15.3237 5.13364 13.1007C3.66431 11.9935 2.47431 10.8855 1.65205 10.0546C1.2412 9.63937 0.922873 9.29408 0.708139 9.05365Z" stroke="#A6A6A6"/>
<path d="M23.5 8.7C23.5 12.1962 20.4061 15.1 16.5 15.1C12.5939 15.1 9.5 12.1962 9.5 8.7C9.5 5.20381 12.5939 2.3 16.5 2.3C20.4061 2.3 23.5 5.20381 23.5 8.7Z" stroke="#A6A6A6"/>
<path d="M19.9 8.7C19.9 10.2063 18.5539 11.5 16.8 11.5C15.0461 11.5 13.7 10.2063 13.7 8.7C13.7 7.19367 15.0461 5.9 16.8 5.9C18.5539 5.9 19.9 7.19367 19.9 8.7Z" fill="#A6A6A6" stroke="#A6A6A6"/>
</svg>
