<svg width="27" height="9" viewBox="0 0 27 9" fill="none" xmlns="http://www.w3.org/2000/svg">
<path fill-rule="evenodd" clip-rule="evenodd" d="M19.2961 5.86442C19.3017 4.47595 18.1565 3.87624 17.2679 3.41085C16.7053 3.11623 16.2455 2.87543 16.2455 2.52243C16.2455 2.22192 16.5369 1.9032 17.1561 1.82125C17.8931 1.74833 18.636 1.8774 19.3052 2.1946L19.6877 0.373356C19.0353 0.128724 18.3446 0.00229584 17.6479 0C15.4988 0 14.0054 1.14739 14.0054 2.78651C14.0054 3.99764 15.089 4.6715 15.9086 5.07218C16.7281 5.47285 17.0469 5.75514 17.0378 6.11939C17.0378 6.68398 16.3639 6.93895 15.7356 6.94806C14.9605 6.95804 14.1957 6.76998 13.5136 6.40169L13.1221 8.22293C13.8938 8.52421 14.7159 8.67565 15.5443 8.66914C17.83 8.66914 19.3325 7.53997 19.3416 5.79157L19.2961 5.86442ZM13.3862 0.145675L11.5649 8.56895H9.37942L11.2007 0.145675H13.3862ZM22.5471 5.60945L23.6944 2.44958L24.3592 5.60945H22.5471ZM27 8.59629H24.9784L24.7143 7.33963H21.9734L21.5271 8.59629H19.2324L22.5015 0.792245C22.6522 0.420942 23.0114 0.176686 23.4121 0.173021H25.2334L27 8.59629ZM6.78415 8.54167L10.3174 0.118394H7.94975L5.68229 5.84622L4.77167 0.974381C4.69106 0.479319 4.26245 0.116353 3.76088 0.118394H0.0546374L0 0.364263C0.743377 0.509707 1.46544 0.748353 2.14907 1.07455C2.44025 1.21145 2.63757 1.49185 2.66813 1.81215L4.40742 8.54167H6.78415Z" fill="#000C14"/>
</svg>
