<svg width="30" height="30" viewBox="0 0 30 30" fill="none" xmlns="http://www.w3.org/2000/svg">
<path d="M23.7431 5.80304C22.9766 5.56141 22.1152 5.4441 21.12 5.38269C19.9825 5.3125 18.6001 5.3125 16.9041 5.3125H13.0759C11.0717 5.31249 9.50051 5.31249 8.24528 5.43183C6.96584 5.55348 5.91821 5.80571 4.99469 6.37165C4.02757 6.9643 3.21444 7.77742 2.62179 8.74454C2.6008 8.7788 2.58023 8.81324 2.56009 8.84785C2.65671 7.04392 2.90907 5.84916 3.56821 4.90333C3.91314 4.40837 4.33066 3.9731 4.80543 3.61349C6.27548 2.5 8.37248 2.5 12.5665 2.5H19.2774C21.3864 2.5 22.4409 2.5 23.0961 3.18306C23.5993 3.70767 23.7161 4.47785 23.7431 5.80304Z" fill="#199EFF"/>
<path d="M3.42103 9.23438C2.50003 10.7373 2.50003 12.7832 2.50003 16.875C2.50003 20.9668 2.50003 23.0127 3.42103 24.5156C3.93637 25.3566 4.64344 26.0637 5.48441 26.579C6.98734 27.5 9.03324 27.5 13.125 27.5H16.875C20.9668 27.5 23.0127 27.5 24.5156 26.579C25.3566 26.0637 26.0637 25.3566 26.579 24.5156C27.1839 23.5286 27.3915 22.3073 27.4628 20.4262H19.5456C17.145 20.4262 15.199 18.4801 15.199 16.0796C15.199 13.679 17.145 11.733 19.5456 11.733H27.3471C27.2218 10.6984 26.9939 9.91132 26.579 9.23438C26.0637 8.39341 25.3566 7.68635 24.5156 7.171C24.2762 7.02429 24.0231 6.90095 23.75 6.79726C22.309 6.25 20.315 6.25 16.875 6.25H13.125C9.03324 6.25 6.98734 6.25 5.48441 7.171C4.64344 7.68635 3.93637 8.39341 3.42103 9.23438Z" fill="#199EFF"/>
<path fill-rule="evenodd" clip-rule="evenodd" d="M27.4724 13.608H19.5456C18.1806 13.608 17.074 14.7145 17.074 16.0796C17.074 17.4446 18.1806 18.5512 19.5456 18.5512H27.4971C27.5 18.0334 27.5 17.4763 27.5 16.875C27.5 15.6035 27.5 14.5295 27.4724 13.608ZM19.5456 15.1421C19.0278 15.1421 18.6081 15.5618 18.6081 16.0796C18.6081 16.5973 19.0278 17.0171 19.5456 17.0171H22.9547C23.4725 17.0171 23.8922 16.5973 23.8922 16.0796C23.8922 15.5618 23.4725 15.1421 22.9547 15.1421H19.5456Z" fill="#199EFF"/>
</svg>
