<svg width="30" height="30" viewBox="0 0 30 30" fill="none" xmlns="http://www.w3.org/2000/svg">
<path d="M5.48445 26.579L5.97429 25.7797L5.48445 26.579ZM3.42107 24.5156L4.22042 24.0258L3.42107 24.5156ZM26.5791 24.5156L25.7797 24.0258L26.5791 24.5156ZM24.5157 26.579L24.0258 25.7797L24.5157 26.579ZM24.5157 7.171L24.0258 7.97035L24.5157 7.171ZM26.5791 9.23438L25.7797 9.72423L26.5791 9.23438ZM5.48445 7.171L5.97429 7.97035L5.48445 7.171ZM3.42107 9.23438L4.22042 9.72423L3.42107 9.23438ZM23.096 3.18306L23.7726 2.5341V2.5341L23.096 3.18306ZM4.80534 3.61349L5.3714 4.36081L4.80534 3.61349ZM3.56812 4.90333L4.33727 5.43935L3.56812 4.90333ZM23.7501 6.4129H24.6876L24.6876 6.40827L23.7501 6.4129ZM22.9546 17.0171C23.4724 17.0171 23.8921 16.5973 23.8921 16.0796C23.8921 15.5618 23.4724 15.1421 22.9546 15.1421V17.0171ZM19.5455 15.1421C19.0278 15.1421 18.608 15.5618 18.608 16.0796C18.608 16.5973 19.0278 17.0171 19.5455 17.0171V15.1421ZM13.1251 7.1875H16.8751V5.3125H13.1251V7.1875ZM16.8751 26.5625H13.1251V28.4375H16.8751V26.5625ZM13.1251 26.5625C11.061 26.5625 9.57882 26.5615 8.42268 26.4516C7.28049 26.343 6.5537 26.1347 5.97429 25.7797L4.99461 27.3784C5.91813 27.9443 6.96576 28.1965 8.2452 28.3182C9.51069 28.4385 11.0973 28.4375 13.1251 28.4375V26.5625ZM1.56257 16.875C1.56257 18.9027 1.56158 20.4894 1.6819 21.7549C1.80355 23.0343 2.05578 24.0819 2.62171 25.0055L4.22042 24.0258C3.86535 23.4464 3.65708 22.7196 3.54848 21.5774C3.43856 20.4212 3.43757 18.939 3.43757 16.875H1.56257ZM5.97429 25.7797C5.25947 25.3416 4.65846 24.7406 4.22042 24.0258L2.62171 25.0055C3.21437 25.9726 4.02749 26.7857 4.99461 27.3784L5.97429 25.7797ZM16.8751 28.4375C18.9028 28.4375 20.4894 28.4385 21.7549 28.3182C23.0344 28.1965 24.082 27.9443 25.0055 27.3784L24.0258 25.7797C23.4464 26.1347 22.7196 26.343 21.5775 26.4516C20.4213 26.5615 18.9391 26.5625 16.8751 26.5625V28.4375ZM25.7797 24.0258C25.3417 24.7406 24.7407 25.3416 24.0258 25.7797L25.0055 27.3784C25.9726 26.7857 26.7858 25.9726 27.3784 25.0055L25.7797 24.0258ZM24.0258 7.97035C24.7407 8.40839 25.3417 9.0094 25.7797 9.72423L27.3784 8.74454C26.7858 7.77742 25.9726 6.9643 25.0055 6.37165L24.0258 7.97035ZM13.1251 5.3125C11.0973 5.3125 9.51069 5.31151 8.2452 5.43183C6.96576 5.55348 5.91813 5.80571 4.99461 6.37165L5.97429 7.97035C6.5537 7.61529 7.28049 7.40702 8.42268 7.29842C9.57882 7.18849 11.061 7.1875 13.1251 7.1875V5.3125ZM3.43757 16.875C3.43757 14.811 3.43856 13.3288 3.54848 12.1726C3.65708 11.0304 3.86535 10.3036 4.22042 9.72423L2.62171 8.74454C2.05578 9.66807 1.80355 10.7157 1.6819 11.9951C1.56158 13.2606 1.56257 14.8473 1.56257 16.875H3.43757ZM4.99461 6.37165C4.02749 6.9643 3.21437 7.77742 2.62171 8.74454L4.22042 9.72423C4.65846 9.0094 5.25947 8.40839 5.97429 7.97035L4.99461 6.37165ZM12.5664 3.4375H19.2773V1.5625H12.5664V3.4375ZM19.2773 3.4375C20.3594 3.4375 21.0727 3.43966 21.6017 3.51381C22.0996 3.58359 22.2933 3.70048 22.4195 3.83203L23.7726 2.5341C23.2436 1.98258 22.5824 1.75794 21.862 1.65696C21.1727 1.56034 20.3042 1.5625 19.2773 1.5625V3.4375ZM12.5664 1.5625C10.4912 1.5625 8.85624 1.5611 7.55917 1.70761C6.24214 1.85637 5.16218 2.16713 4.23928 2.86617L5.3714 4.36081C5.91856 3.94636 6.62212 3.70037 7.76961 3.57076C8.93706 3.4389 10.4476 3.4375 12.5664 3.4375V1.5625ZM3.43757 12.9945C3.43757 10.7883 3.43875 9.20586 3.56605 7.98091C3.69176 6.7713 3.93193 6.02098 4.33727 5.43935L2.79897 4.36732C2.13625 5.31827 1.8424 6.42735 1.70109 7.78709C1.56138 9.1315 1.56257 10.8284 1.56257 12.9945H3.43757ZM4.23928 2.86617C3.68514 3.2859 3.19937 3.79277 2.79897 4.36732L4.33727 5.43935C4.62675 5.02398 4.97601 4.66029 5.3714 4.36081L4.23928 2.86617ZM24.6876 6.40827C24.6834 5.56244 24.6653 4.82947 24.5594 4.22183C24.4493 3.59035 24.2318 3.01282 23.7726 2.5341L22.4195 3.83203C22.5362 3.95369 22.6414 4.13735 22.7123 4.54382C22.7873 4.97414 22.8083 5.55591 22.8126 6.41754L24.6876 6.40827ZM1.56257 12.9945C1.56257 14.2141 1.53737 15.3302 1.56289 16.2753L3.4372 16.2247C3.41251 15.3102 3.43757 14.2801 3.43757 12.9945H1.56257ZM26.875 18.5512H19.5455V20.4262H26.875V18.5512ZM15.1989 16.0796C15.1989 18.4801 17.145 20.4262 19.5455 20.4262V18.5512C18.1805 18.5512 17.0739 17.4446 17.0739 16.0796H15.1989ZM17.0739 16.0796C17.0739 14.7145 18.1805 13.608 19.5455 13.608V11.733C17.145 11.733 15.1989 13.679 15.1989 16.0796H17.0739ZM22.9546 15.1421H19.5455V17.0171H22.9546V15.1421ZM16.8751 7.1875C18.6058 7.1875 19.9312 7.1879 21.0044 7.25413C22.0767 7.32029 22.8263 7.44927 23.4172 7.67369L24.0829 5.92084C23.2328 5.59799 22.2649 5.45334 21.1199 5.38269C19.9759 5.3121 18.5843 5.3125 16.8751 5.3125V7.1875ZM23.4172 7.67369C23.6385 7.75774 23.8388 7.85575 24.0258 7.97035L25.0055 6.37165C24.7137 6.19283 24.4077 6.04417 24.0829 5.92084L23.4172 7.67369ZM22.8126 6.4129V6.79726H24.6876V6.4129H22.8126ZM19.5455 13.608H27.4306V11.733H19.5455V13.608ZM28.4376 16.875C28.4376 15.1569 28.438 13.7596 28.3663 12.612L26.4949 12.729C26.5622 13.8049 26.5626 15.135 26.5626 16.875H28.4376ZM28.3663 12.612C28.2682 11.0435 28.0309 9.80936 27.3784 8.74454L25.7797 9.72423C26.1908 10.3951 26.403 11.2588 26.4949 12.729L28.3663 12.612ZM26.5626 16.875C26.5626 17.8594 26.5625 18.7153 26.55 19.4731L28.4247 19.5042C28.4376 18.7277 28.4376 17.8549 28.4376 16.875H26.5626ZM26.55 19.4731C26.5093 21.9213 26.3293 23.1289 25.7797 24.0258L27.3784 25.0055C28.2286 23.618 28.3847 21.9141 28.4247 19.5042L26.55 19.4731ZM26.875 20.4262H27.4873V18.5512H26.875V20.4262Z" fill="#999EA1"/>
</svg>
