<svg width="39" height="39" viewBox="0 0 39 39" fill="none" xmlns="http://www.w3.org/2000/svg">
<g clip-path="url(#clip0_5_1534)">
<path d="M19.5 39C30.2696 39 39 30.2696 39 19.5C39 8.73045 30.2696 0 19.5 0C8.73045 0 0 8.73045 0 19.5C0 30.2696 8.73045 39 19.5 39Z" fill="#3B5998"/>
<path d="M24.4023 20.2634H20.9227V33.0108H15.651V20.2634H13.1437V15.7834H15.651V12.8844C15.651 10.8113 16.6357 7.56499 20.9697 7.56499L24.8747 7.58132V11.9299H22.0413C21.5766 11.9299 20.9231 12.1621 20.9231 13.151V15.7876H24.8629L24.4023 20.2634Z" fill="white"/>
</g>
<defs>
<clipPath id="clip0_5_1534">
<rect width="39" height="39" fill="white"/>
</clipPath>
</defs>
</svg>
