<svg width="39" height="39" viewBox="0 0 39 39" fill="none" xmlns="http://www.w3.org/2000/svg">
<g clip-path="url(#clip0_5_1538)">
<path d="M23.2324 19.5C23.2324 21.5614 21.5614 23.2325 19.5 23.2325C17.4386 23.2325 15.7676 21.5614 15.7676 19.5C15.7676 17.4386 17.4386 15.7676 19.5 15.7676C21.5614 15.7676 23.2324 17.4386 23.2324 19.5Z" fill="#3B5998"/>
<path d="M28.2288 12.8963C28.0494 12.4101 27.7631 11.97 27.3912 11.6088C27.03 11.2369 26.5902 10.9506 26.1037 10.7712C25.7092 10.618 25.1165 10.4356 24.0248 10.3859C22.8438 10.332 22.4897 10.3204 19.5 10.3204C16.5099 10.3204 16.1558 10.3317 14.9752 10.3856C13.8835 10.4356 13.2905 10.618 12.8962 10.7712C12.4097 10.9506 11.9697 11.2369 11.6087 11.6088C11.2368 11.97 10.9506 12.4098 10.7709 12.8963C10.6176 13.2908 10.4352 13.8839 10.3855 14.9755C10.3317 16.1562 10.3201 16.5103 10.3201 19.5003C10.3201 22.4901 10.3317 22.8442 10.3855 24.0251C10.4352 25.1168 10.6176 25.7095 10.7709 26.1041C10.9506 26.5906 11.2365 27.0303 11.6084 27.3916C11.9697 27.7635 12.4094 28.0497 12.8959 28.2292C13.2905 28.3827 13.8835 28.5651 14.9752 28.6148C16.1558 28.6686 16.5096 28.6799 19.4997 28.6799C22.49 28.6799 22.8441 28.6686 24.0245 28.6148C25.1162 28.5651 25.7092 28.3827 26.1037 28.2292C27.0803 27.8525 27.8521 27.0806 28.2288 26.1041C28.382 25.7095 28.5644 25.1168 28.6144 24.0251C28.6683 22.8442 28.6796 22.4901 28.6796 19.5003C28.6796 16.5103 28.6683 16.1562 28.6144 14.9755C28.5647 13.8839 28.3823 13.2908 28.2288 12.8963V12.8963ZM19.5 25.2498C16.3243 25.2498 13.7499 22.6758 13.7499 19.5C13.7499 16.3243 16.3243 13.7503 19.5 13.7503C22.6754 13.7503 25.2498 16.3243 25.2498 19.5C25.2498 22.6758 22.6754 25.2498 19.5 25.2498ZM25.4771 14.8666C24.735 14.8666 24.1334 14.265 24.1334 13.5229C24.1334 12.7808 24.735 12.1792 25.4771 12.1792C26.2192 12.1792 26.8208 12.7808 26.8208 13.5229C26.8205 14.265 26.2192 14.8666 25.4771 14.8666Z" fill="#3B5998"/>
<path d="M19.5 0C8.73209 0 0 8.73209 0 19.5C0 30.2679 8.73209 39 19.5 39C30.2679 39 39 30.2679 39 19.5C39 8.73209 30.2679 0 19.5 0ZM30.6297 24.1164C30.5756 25.3084 30.386 26.1222 30.1093 26.8345C29.5276 28.3386 28.3386 29.5276 26.8345 30.1093C26.1225 30.386 25.3084 30.5753 24.1167 30.6297C22.9227 30.6842 22.5412 30.6973 19.5003 30.6973C16.4591 30.6973 16.0779 30.6842 14.8836 30.6297C13.6919 30.5753 12.8778 30.386 12.1658 30.1093C11.4183 29.8281 10.7417 29.3875 10.1823 28.8177C9.61283 28.2586 9.17216 27.5817 8.89098 26.8345C8.61427 26.1225 8.42473 25.3084 8.37057 24.1167C8.31553 22.9224 8.30273 22.5409 8.30273 19.5C8.30273 16.4591 8.31553 16.0776 8.37028 14.8836C8.42443 13.6916 8.61367 12.8778 8.89039 12.1655C9.17157 11.4183 9.61253 10.7414 10.1823 10.1823C10.7414 9.61253 11.4183 9.17187 12.1655 8.89069C12.8778 8.61397 13.6916 8.42473 14.8836 8.37028C16.0776 8.31583 16.4591 8.30273 19.5 8.30273C22.5409 8.30273 22.9224 8.31583 24.1164 8.37057C25.3084 8.42473 26.1222 8.61397 26.8345 8.89039C27.5817 9.17157 28.2586 9.61253 28.818 10.1823C29.3875 10.7417 29.8284 11.4183 30.1093 12.1655C30.3863 12.8778 30.5756 13.6916 30.63 14.8836C30.6845 16.0776 30.6973 16.4591 30.6973 19.5C30.6973 22.5409 30.6845 22.9224 30.6297 24.1164V24.1164Z" fill="#3B5998"/>
</g>
<defs>
<clipPath id="clip0_5_1538">
<rect width="39" height="39" fill="white"/>
</clipPath>
</defs>
</svg>
