<svg width="39" height="39" viewBox="0 0 39 39" fill="none" xmlns="http://www.w3.org/2000/svg">
<g clip-path="url(#clip0_5_1547)">
<path d="M19.5 38.999C30.2696 38.999 39 30.2685 39 19.499C39 8.72944 30.2696 -0.00100708 19.5 -0.00100708C8.73045 -0.00100708 0 8.72944 0 19.499C0 30.2685 8.73045 38.999 19.5 38.999Z" fill="#007AB9"/>
<path d="M31.151 21.0687V29.1082H26.4899V21.6075C26.4899 19.7242 25.817 18.4381 24.1294 18.4381C22.8415 18.4381 22.0764 19.3039 21.7385 20.1424C21.6158 20.442 21.5842 20.8581 21.5842 21.2783V29.1078H16.9228C16.9228 29.1078 16.9854 16.4042 16.9228 15.0892H21.5845V17.0758C21.5751 17.0914 21.5619 17.1067 21.5536 17.1217H21.5845V17.0758C22.204 16.1227 23.3087 14.76 25.7853 14.76C28.8519 14.76 31.151 16.7636 31.151 21.0687ZM12.0466 8.33176C10.4521 8.33176 9.40894 9.3784 9.40894 10.7535C9.40894 12.0995 10.4219 13.1763 11.9854 13.1763H12.0156C13.6414 13.1763 14.6522 12.0995 14.6522 10.7535C14.6213 9.3784 13.6414 8.33176 12.0466 8.33176ZM9.68598 29.1082H14.3456V15.0892H9.68598V29.1082Z" fill="#F1F2F2"/>
</g>
<defs>
<clipPath id="clip0_5_1547">
<rect width="39" height="39" fill="white"/>
</clipPath>
</defs>
</svg>
