<svg width="39" height="39" viewBox="0 0 39 39" fill="none" xmlns="http://www.w3.org/2000/svg">
<g clip-path="url(#clip0_5_1542)">
<path d="M19.5001 39.0003C30.2695 39.0003 38.9998 30.27 38.9998 19.5006C38.9998 8.73128 30.2695 0.000991821 19.5001 0.000991821C8.73078 0.000991821 0.000488281 8.73128 0.000488281 19.5006C0.000488281 30.27 8.73078 39.0003 19.5001 39.0003Z" fill="#CB2027"/>
<path d="M21.074 26.1124C19.5998 25.9983 18.9804 25.2673 17.8243 24.5655C17.1888 27.8994 16.4123 31.0952 14.1122 32.7647C13.4014 27.7259 15.1543 23.9413 15.9684 19.924C14.5808 17.5882 16.1353 12.8865 19.0621 14.0451C22.6642 15.4696 15.9434 22.7306 20.4552 23.6375C25.1656 24.5843 27.0885 15.4643 24.1673 12.4979C19.9467 8.21515 11.882 12.4006 12.8737 18.5316C13.1153 20.0304 14.6642 20.4854 13.4925 22.5536C10.7913 21.9554 9.98554 19.825 10.0891 16.9847C10.2563 12.3356 14.2666 9.08032 18.289 8.62983C23.3761 8.06046 28.1508 10.4978 28.8098 15.2829C29.5512 20.6835 26.5132 26.5323 21.074 26.1124Z" fill="#F1F2F2"/>
</g>
<defs>
<clipPath id="clip0_5_1542">
<rect width="39" height="39" fill="white"/>
</clipPath>
</defs>
</svg>
