<svg width="60" height="60" viewBox="0 0 60 60" fill="none" xmlns="http://www.w3.org/2000/svg">
<mask id="mask0_1_756" style="mask-type:alpha" maskUnits="userSpaceOnUse" x="0" y="0" width="60" height="60">
<circle cx="30" cy="30" r="30" fill="#000C14"/>
</mask>
<g mask="url(#mask0_1_756)">
<rect x="-3.5" y="-3" width="67" height="67" fill="white"/>
<rect x="-0.149994" y="0.35" width="60.3" height="60.3" fill="white" fill-opacity="0.05"/>
<mask id="mask1_1_756" style="mask-type:alpha" maskUnits="userSpaceOnUse" x="-1" y="0" width="62" height="61">
<rect x="-0.149994" y="0.35" width="60.3" height="60.3" fill="white"/>
</mask>
<g mask="url(#mask1_1_756)">
<path fill-rule="evenodd" clip-rule="evenodd" d="M51.9364 53.6544C50.1589 51.0831 47.5384 49.2142 44.5284 48.371L37.5374 46.4126V41.3877C40.4928 39.1677 42.4336 35.6741 42.5529 31.7223C42.9659 31.9044 43.4219 32.0076 43.9026 32.0076C45.7526 32.0076 47.2526 30.5078 47.2526 28.6576C47.2526 26.8073 45.7526 25.3076 43.9026 25.3076C43.4257 25.3076 42.9731 25.4086 42.5626 25.5881V24.6376C42.5626 17.6994 36.9381 12.0751 30.0001 12.0751H29.9999C23.0619 12.0751 17.4376 17.6994 17.4376 24.6376V25.5881C17.0269 25.4086 16.5743 25.3076 16.0976 25.3076C14.2474 25.3076 12.7476 26.8073 12.7476 28.6576C12.7476 30.5078 14.2474 32.0076 16.0976 32.0076C16.5782 32.0076 17.0341 31.9045 17.4473 31.7223C17.5664 35.6741 19.5072 39.1677 22.4624 41.3877V46.4126L15.4717 48.371C12.4617 49.2142 9.84114 51.0831 8.06363 53.6544L3.2001 60.6903V65.6751H56.8001V60.6903L51.9364 53.6544Z" fill="#B5683C"/>
<path fill-rule="evenodd" clip-rule="evenodd" d="M29.9999 43.9C28.4509 43.9 26.9682 43.6179 25.598 43.1052C27.5467 44.3501 29.8609 45.0725 32.3449 45.0725C34.1975 45.0725 35.9544 44.6683 37.5374 43.9486V41.3877C35.4378 42.9648 32.8282 43.9 29.9999 43.9Z" fill="#A3420B"/>
<path d="M17.8746 29.1464C17.9173 28.9908 17.9402 28.8268 17.9402 28.6576C17.9402 27.6401 17.1153 26.8151 16.0977 26.8151C15.8433 26.8151 15.6009 26.8667 15.3805 26.9599" stroke="#00004D" stroke-width="0.67" stroke-linecap="round" stroke-linejoin="round"/>
<path d="M42.1257 29.1464C42.083 28.9908 42.0602 28.8268 42.0602 28.6576C42.0602 27.6401 42.8851 26.8151 43.9027 26.8151C44.1569 26.8151 44.3993 26.8667 44.6199 26.9599" stroke="#00004D" stroke-width="0.67" stroke-linecap="round" stroke-linejoin="round"/>
<path fill-rule="evenodd" clip-rule="evenodd" d="M34.1874 36.1965C34.1874 38.5093 32.3126 40.384 29.9999 40.384C27.6873 40.384 25.8124 38.5093 25.8124 36.1965H34.1874Z" fill="#AE1328"/>
<path fill-rule="evenodd" clip-rule="evenodd" d="M32.3435 39.6672C31.7393 39.0753 30.9127 38.7089 30 38.7089C29.0873 38.7089 28.2607 39.0753 27.6565 39.6672C28.3253 40.1198 29.1317 40.3839 30 40.3839C30.8681 40.3839 31.6748 40.1198 32.3435 39.6672Z" fill="#FB344F"/>
<path fill-rule="evenodd" clip-rule="evenodd" d="M32.5125 37.5365H27.4875C27.0248 37.5365 26.65 37.1616 26.65 36.699V36.1965H33.35V36.699C33.35 37.1616 32.9751 37.5365 32.5125 37.5365Z" fill="white"/>
<path fill-rule="evenodd" clip-rule="evenodd" d="M35.5275 29.818C35.9531 29.818 36.3474 29.9512 36.6722 30.177C36.7953 29.9745 36.8675 29.7376 36.8675 29.483C36.8675 28.743 36.2675 28.143 35.5275 28.143C34.7875 28.143 34.1875 28.743 34.1875 29.483C34.1875 29.7376 34.2597 29.9745 34.3828 30.177C34.7076 29.9512 35.1019 29.818 35.5275 29.818Z" fill="#00004D"/>
<path fill-rule="evenodd" clip-rule="evenodd" d="M24.4725 29.818C24.8981 29.818 25.2924 29.9512 25.6172 30.177C25.7403 29.9745 25.8125 29.7376 25.8125 29.483C25.8125 28.743 25.2125 28.143 24.4725 28.143C23.7325 28.143 23.1325 28.743 23.1325 29.483C23.1325 29.7376 23.2047 29.9745 23.3278 30.177C23.6526 29.9512 24.0469 29.818 24.4725 29.818Z" fill="#00004D"/>
<path d="M30 27.82L31.675 33.515L29.33 33.85" stroke="#00004D" stroke-width="0.335" stroke-linecap="round" stroke-linejoin="round"/>
<path fill-rule="evenodd" clip-rule="evenodd" d="M30 21.3457L38.9031 26.5276C41.1689 27.8464 42.4193 30.2699 42.4193 32.8915V33.2266C45.0093 33.2266 47.2525 31.1269 47.2525 28.5366V23.7451C47.2525 20.573 45.7834 17.5795 43.2737 15.639L38.1969 11.7133C33.3698 7.98053 26.6302 7.98053 21.8031 11.7133L16.7263 15.639C14.2166 17.5795 12.7475 20.573 12.7475 23.7451V28.5366C12.7475 31.1269 14.9845 33.2266 17.5747 33.2266V32.8915C17.5747 30.2699 18.8311 27.8464 21.0969 26.5276L30 21.3457Z" fill="#F5F5F8"/>
<path d="M30 21.3457L39.8445 15.6159" stroke="#00004D" stroke-width="0.335" stroke-linecap="round" stroke-linejoin="round"/>
<path d="M27.5761 14.4772C27.5761 14.4772 15.793 24.4869 14.1979 25.8548C13.369 26.5657 12.915 27.3601 12.915 28.4275" stroke="#00004D" stroke-width="0.335" stroke-linecap="round" stroke-linejoin="round"/>
<path d="M36.236 17.7163C36.236 17.7163 44.207 24.4868 45.8021 25.8548C46.6312 26.5657 47.0849 27.3601 47.0849 28.4274" stroke="#00004D" stroke-width="0.335" stroke-linecap="round" stroke-linejoin="round"/>
<path fill-rule="evenodd" clip-rule="evenodd" d="M56.8 60.6902L51.9363 53.6544C50.159 51.0832 47.5384 49.2141 44.5283 48.3709L37.5375 46.4125C37.5375 50.5754 34.1629 53.95 30 53.95C25.8371 53.95 22.4625 50.5754 22.4625 46.4125L15.4716 48.3709C12.4616 49.2141 9.84105 51.0832 8.06354 53.6544L3.20001 60.6902V65.675H56.8V60.6902Z" fill="#80C43B"/>
<path fill-rule="evenodd" clip-rule="evenodd" d="M32.9424 39.2892L31.633 40.0492C30.5932 40.6528 29.3095 40.6528 28.2696 40.0492L26.9601 39.2892C26.2657 38.886 25.955 38.0467 26.2196 37.2886L26.4446 36.6444C26.5385 36.3754 26.7921 36.195 27.077 36.195H32.8255C33.1104 36.195 33.3642 36.3754 33.458 36.6444L33.6829 37.2886C33.9476 38.0467 33.6368 38.886 32.9424 39.2892ZM42.6035 31.7639C42.1318 31.574 41.7152 31.2792 41.3784 30.9092L40.5116 33.7378C40.0387 35.2809 38.8535 36.503 37.3255 37.0229L35.7139 37.5712L35.0693 36.3003C34.4985 35.1749 33.3437 34.4657 32.0816 34.4657H29.9513H27.8209C26.559 34.4657 25.4041 35.1749 24.8332 36.3003L24.1887 37.5712L22.577 37.0229C21.0491 36.503 19.8638 35.2809 19.391 33.7378L18.5242 30.9092C18.1873 31.2792 17.7707 31.574 17.2989 31.7641L15.5601 40.0242C14.6547 44.3236 16.6475 48.7126 20.4801 50.8611L28.313 55.2521C29.3308 55.8226 30.5719 55.8226 31.5893 55.2521L39.4225 50.8611C43.2549 48.7126 45.2476 44.3236 44.3426 40.0242L42.6035 31.7639Z" fill="#00004D"/>
</g>
</g>
</svg>
