<svg width="60" height="60" viewBox="0 0 60 60" fill="none" xmlns="http://www.w3.org/2000/svg">
<mask id="mask0_1_719" style="mask-type:alpha" maskUnits="userSpaceOnUse" x="0" y="0" width="60" height="60">
<circle cx="30" cy="30" r="30" fill="#000C14"/>
</mask>
<g mask="url(#mask0_1_719)">
<rect x="-5" y="-4" width="69" height="69" fill="white"/>
<rect x="-1.54999" y="-0.549999" width="62.1" height="62.1" fill="#9292B3" fill-opacity="0.05"/>
<mask id="mask1_1_719" style="mask-type:alpha" maskUnits="userSpaceOnUse" x="-2" y="-1" width="63" height="63">
<rect x="-1.54999" y="-0.549999" width="62.1" height="62.1" fill="white"/>
</mask>
<g mask="url(#mask1_1_719)">
<path fill-rule="evenodd" clip-rule="evenodd" d="M52.0912 54.3456C50.2607 51.6975 47.5619 49.7728 44.4621 48.9044L37.2624 46.8876V41.7127C40.306 39.4264 42.3048 35.8286 42.4276 31.7588C42.853 31.9463 43.3225 32.0526 43.8176 32.0526C45.7229 32.0526 47.2676 30.508 47.2676 28.6026C47.2676 26.6971 45.7229 25.1526 43.8176 25.1526C43.3265 25.1526 42.8604 25.2566 42.4376 25.4415V24.4626C42.4376 17.3173 36.6452 11.5251 29.5001 11.5251H29.4999C22.3548 11.5251 16.5626 17.3173 16.5626 24.4626V25.4415C16.1396 25.2566 15.6735 25.1526 15.1826 25.1526C13.2772 25.1526 11.7326 26.6971 11.7326 28.6026C11.7326 30.508 13.2772 32.0526 15.1826 32.0526C15.6775 32.0526 16.1471 31.9465 16.5726 31.7588C16.6953 35.8286 18.694 39.4264 21.7374 41.7127L21.7374 46.8876L14.538 48.9044C11.4382 49.7728 8.7394 51.6975 6.90883 54.3456L1.90012 61.5914L1.90012 66.7251H57.1001V61.5914L52.0912 54.3456Z" fill="#F5CDD3"/>
<path fill-rule="evenodd" clip-rule="evenodd" d="M29.4999 44.3C27.9047 44.3 26.3777 44.0095 24.9666 43.4815C26.9735 44.7635 29.3568 45.5075 31.9149 45.5075C33.8228 45.5075 35.6321 45.0912 37.2624 44.35V41.7127C35.1002 43.3369 32.4126 44.3 29.4999 44.3Z" fill="#F48C9D"/>
<path d="M17.0126 29.106C17.0566 28.9457 17.0802 28.7769 17.0802 28.6026C17.0802 27.5547 16.2306 26.7051 15.1827 26.7051C14.9207 26.7051 14.6711 26.7583 14.4441 26.8542" stroke="#00004D" stroke-width="0.345" stroke-linecap="round" stroke-linejoin="round"/>
<path d="M41.9876 29.106C41.9436 28.9457 41.9202 28.7769 41.9202 28.6026C41.9202 27.5547 42.7697 26.7051 43.8177 26.7051C44.0795 26.7051 44.3291 26.7583 44.5563 26.8542" stroke="#00004D" stroke-width="0.345" stroke-linecap="round" stroke-linejoin="round"/>
<path fill-rule="evenodd" clip-rule="evenodd" d="M25.1875 40.679C25.1875 38.2973 27.1183 36.3665 29.5 36.3665C31.8817 36.3665 33.8125 38.2973 33.8125 40.679H25.1875Z" fill="#AE1328"/>
<path fill-rule="evenodd" clip-rule="evenodd" d="M29.5 36.3665C28.2511 36.3665 27.1267 36.8982 26.3391 37.7465H32.6609C31.8732 36.8982 30.7489 36.3665 29.5 36.3665Z" fill="white"/>
<path fill-rule="evenodd" clip-rule="evenodd" d="M29.5 38.954C28.2238 38.954 27.112 39.6488 26.5152 40.679H32.4847C31.8879 39.6488 30.7761 38.954 29.5 38.954Z" fill="#FB344F"/>
<path fill-rule="evenodd" clip-rule="evenodd" d="M36.5726 29.12C36.5726 29.8821 35.9547 30.5 35.1926 30.5C34.4305 30.5 33.8126 29.8821 33.8126 29.12C33.8126 28.3579 34.4305 27.74 35.1926 27.74C35.9547 27.74 36.5726 28.3579 36.5726 29.12Z" fill="#00004D"/>
<path fill-rule="evenodd" clip-rule="evenodd" d="M25.1875 29.12C25.1875 29.8821 24.5696 30.5 23.8075 30.5C23.0454 30.5 22.4275 29.8821 22.4275 29.12C22.4275 28.3579 23.0454 27.74 23.8075 27.74C24.5696 27.74 25.1875 28.3579 25.1875 29.12Z" fill="#00004D"/>
<path d="M29.4999 27.74L31.2249 33.605L28.8099 33.95" stroke="#00004D" stroke-width="0.345" stroke-linecap="round" stroke-linejoin="round"/>
<path fill-rule="evenodd" clip-rule="evenodd" d="M41.575 25.984C42.054 25.5733 42.6469 25.294 43.3 25.1955V24.4625C43.3 21.8154 42.5534 19.3431 41.2611 17.2425C40.0634 15.2959 38.3953 13.6716 36.4164 12.5228C34.3825 11.3418 32.0213 10.6625 29.5 10.6625C26.9789 10.6625 24.6176 11.3418 22.5836 12.5228C20.6047 13.6716 18.9366 15.2959 17.739 17.2425C16.4468 19.3431 15.7 21.8154 15.7 24.4625V25.1955C16.3531 25.294 16.946 25.5733 17.425 25.984V24.4625C17.425 19.8162 20.0508 15.7853 23.8979 13.7662C25.405 15.0563 27.3607 15.8375 29.5 15.8375C31.6394 15.8375 33.595 15.0563 35.1021 13.7663C38.9492 15.7854 41.575 19.8162 41.575 24.4625V25.984Z" fill="#F0F0F4"/>
<path fill-rule="evenodd" clip-rule="evenodd" d="M57.1 61.5914L52.0913 54.3455C50.2607 51.6977 47.562 49.7727 44.462 48.9044L37.2625 46.8875C37.2625 51.1745 33.7871 54.65 29.5 54.65C25.2129 54.65 21.7375 51.1745 21.7375 46.8875L14.538 48.9044C11.438 49.7727 8.73927 51.6977 6.9087 54.3455L1.89999 61.5914L1.89999 66.725H57.1V61.5914Z" fill="#9BC5FF"/>
<path d="M38.7764 51.3105C37.0837 54.721 33.5655 57.0649 29.5001 57.0649C24.0825 57.0649 19.6372 52.9026 19.1873 47.6017" stroke="#00004D" stroke-width="0.345" stroke-linecap="round" stroke-linejoin="round"/>
<path fill-rule="evenodd" clip-rule="evenodd" d="M39.5051 29.6376C39.5051 31.8286 37.7287 33.6051 35.5376 33.6051C33.3465 33.6051 31.5701 31.8286 31.5701 29.6376C31.5701 27.4463 33.3465 25.6701 35.5376 25.6701C37.7287 25.6701 39.5051 27.4463 39.5051 29.6376Z" stroke="#00004D" stroke-width="0.69" stroke-linecap="round" stroke-linejoin="round"/>
<path fill-rule="evenodd" clip-rule="evenodd" d="M19.4951 29.6376C19.4951 31.8286 21.2713 33.6051 23.4626 33.6051C25.6539 33.6051 27.4301 31.8286 27.4301 29.6376C27.4301 27.4463 25.6539 25.6701 23.4626 25.6701C21.2713 25.6701 19.4951 27.4463 19.4951 29.6376Z" stroke="#00004D" stroke-width="0.69" stroke-linecap="round" stroke-linejoin="round"/>
<path d="M27.1843 28.2606C27.4801 27.2615 28.405 26.5325 29.5001 26.5325C30.5953 26.5325 31.5201 27.2615 31.8161 28.2606" stroke="#00004D" stroke-width="0.69" stroke-linecap="round" stroke-linejoin="round"/>
</g>
</g>
</svg>
