<svg width="60" height="60" viewBox="0 0 60 60" fill="none" xmlns="http://www.w3.org/2000/svg">
<mask id="mask0_1_687" style="mask-type:alpha" maskUnits="userSpaceOnUse" x="0" y="0" width="60" height="60">
<circle cx="30" cy="30" r="30" fill="#000C14"/>
</mask>
<g mask="url(#mask0_1_687)">
<rect x="-6.5" y="-6" width="72" height="72" fill="white"/>
<rect x="-2.89999" y="-2.4" width="64.8" height="64.8" fill="white" fill-opacity="0.05"/>
<mask id="mask1_1_687" style="mask-type:alpha" maskUnits="userSpaceOnUse" x="-3" y="-3" width="65" height="66">
<rect x="-2.89999" y="-2.4" width="64.8" height="64.8" fill="white"/>
</mask>
<g mask="url(#mask1_1_687)">
<path fill-rule="evenodd" clip-rule="evenodd" d="M53.0734 54.8824C51.1633 52.1192 48.3472 50.1107 45.1126 49.2046L37.5999 47.1001V41.7002C40.7758 39.3145 42.8615 35.5603 42.9897 31.3135C43.4335 31.5092 43.9235 31.6201 44.4401 31.6201C46.4282 31.6201 48.0401 30.0083 48.0401 28.0201C48.0401 26.0318 46.4282 24.4201 44.4401 24.4201C43.9276 24.4201 43.4413 24.5286 43.0001 24.7216V23.7001C43.0001 16.2441 36.9559 10.2001 29.5001 10.2001H29.4999C22.0441 10.2001 16.0001 16.2441 16.0001 23.7001V24.7216C15.5587 24.5286 15.0724 24.4201 14.5601 24.4201C12.5718 24.4201 10.9601 26.0318 10.9601 28.0201C10.9601 30.0083 12.5718 31.6201 14.5601 31.6201C15.0765 31.6201 15.5665 31.5094 16.0105 31.3135C16.1385 35.5603 18.2242 39.3145 21.3999 41.7002V47.1001L13.8874 49.2046C10.6528 50.1107 7.83674 52.1192 5.92658 54.8824L0.700104 62.4433V67.8001H58.3001V62.4433L53.0734 54.8824Z" fill="#E9ADA1"/>
<path fill-rule="evenodd" clip-rule="evenodd" d="M29.4999 44.4C27.8353 44.4 26.2419 44.0969 24.7695 43.5459C26.8637 44.8836 29.3505 45.66 32.0199 45.66C34.0107 45.66 35.8988 45.2256 37.5999 44.4522V41.7002C35.3436 43.395 32.5392 44.4 29.4999 44.4Z" fill="#DB8B79"/>
<path d="M16.4697 28.5454C16.5156 28.3782 16.5402 28.2019 16.5402 28.0201C16.5402 26.9266 15.6537 26.0401 14.5602 26.0401C14.2868 26.0401 14.0263 26.0956 13.7895 26.1957" stroke="#00004D" stroke-width="0.36" stroke-linecap="round" stroke-linejoin="round"/>
<path d="M42.5305 28.5454C42.4846 28.3782 42.4601 28.2019 42.4601 28.0201C42.4601 26.9266 43.3466 26.0401 44.4401 26.0401C44.7134 26.0401 44.9738 26.0956 45.2109 26.1957" stroke="#00004D" stroke-width="0.36" stroke-linecap="round" stroke-linejoin="round"/>
<path d="M27.1599 37.2917H31.8399" stroke="#00004D" stroke-width="0.72" stroke-linecap="round" stroke-linejoin="round"/>
<path fill-rule="evenodd" clip-rule="evenodd" d="M35.9471 29.6971C36.8811 29.357 37.3628 28.324 37.0229 27.39L33.64 28.6212C33.98 29.5554 35.0131 30.0371 35.9471 29.6971Z" fill="#00004D"/>
<path fill-rule="evenodd" clip-rule="evenodd" d="M22.9449 29.6971C22.0109 29.357 21.529 28.324 21.869 27.39L25.2518 28.6212C24.9119 29.5554 23.8789 30.0371 22.9449 29.6971Z" fill="#00004D"/>
<path d="M29.14 27.12L31.66 32.88L28.42 33.6" stroke="#00004D" stroke-width="0.36" stroke-linecap="round" stroke-linejoin="round"/>
<path fill-rule="evenodd" clip-rule="evenodd" d="M31.3985 19.2H27.8987C26.9566 19.2 26.1741 18.4739 26.1036 17.5346L25.1485 4.79998H34.1485L33.1934 17.5346C33.123 18.4739 32.3402 19.2 31.3985 19.2Z" fill="#9B5921"/>
<path fill-rule="evenodd" clip-rule="evenodd" d="M53.0735 54.8824C51.1634 52.1192 48.3473 50.1108 45.1125 49.2046L40.3103 47.8591L38.32 44.5801H37.6V45.9283L29.5 53.4001L29.4998 53.3999L21.4 45.9283V44.5801H20.68L18.6899 47.8591L13.8875 49.2046C10.6528 50.1108 7.83683 52.1192 5.92649 54.8824L0.700012 62.4431L0.700012 67.8001H58.3V62.4433L53.0735 54.8824Z" fill="#F5F5F8"/>
<path d="M18.6898 47.8592L23.4251 57.675L29.5001 53.4" stroke="#00004D" stroke-width="0.36" stroke-linecap="round" stroke-linejoin="round"/>
<path d="M29.5 53.4L35.575 57.675L38.7335 51.1275" stroke="#00004D" stroke-width="0.36" stroke-linecap="round" stroke-linejoin="round"/>
<path fill-rule="evenodd" clip-rule="evenodd" d="M26.8 34.2197C25.2093 34.2197 23.92 35.509 23.92 37.0997V41.8121C23.92 42.9054 24.8065 43.7919 25.9 43.7919V36.7397H33.1V43.7919C34.1935 43.7919 35.08 42.9054 35.08 41.8121V37.0997C35.08 35.509 33.7906 34.2197 32.2 34.2197H26.8Z" fill="#9B5921"/>
</g>
</g>
</svg>
