<svg width="30" height="30" viewBox="0 0 30 30" fill="none" xmlns="http://www.w3.org/2000/svg">
<path d="M7.86708 6.20695C4.53356 8.62889 2.8668 9.83986 2.21217 11.6286C2.15966 11.7721 2.11242 11.9175 2.07056 12.0645C1.54876 13.8964 2.1854 15.8558 3.45869 19.7746C4.73199 23.6934 5.36863 25.6528 6.86756 26.8281C6.98781 26.9224 7.11147 27.0122 7.2383 27.0975C7.77161 27.4558 8.35945 27.6933 9.0625 27.8507V22.2746C9.0625 18.9954 11.7208 16.3371 15 16.3371C18.2792 16.3371 20.9375 18.9954 20.9375 22.2746V27.8507C21.6406 27.6933 22.2284 27.4558 22.7617 27.0975C22.8885 27.0122 23.0122 26.9224 23.1325 26.8281C24.6314 25.6528 25.268 23.6934 26.5413 19.7746C27.8146 15.8558 28.4513 13.8964 27.9294 12.0645C27.8876 11.9175 27.8404 11.7721 27.7878 11.6286C27.1332 9.83987 25.4665 8.6289 22.1329 6.20696C18.7994 3.78502 17.1327 2.57403 15.2291 2.5042C15.0764 2.4986 14.9236 2.4986 14.7709 2.5042C12.8674 2.57403 11.2006 3.78501 7.86708 6.20695Z" fill="#999EA1"/>
<path fill-rule="evenodd" clip-rule="evenodd" d="M19.0625 28.0915V22.2746C19.0625 20.0309 17.2437 18.2121 15 18.2121C12.7563 18.2121 10.9375 20.0309 10.9375 22.2746V28.0915C12.0287 28.1598 13.349 28.1598 15 28.1598C16.651 28.1598 17.9713 28.1598 19.0625 28.0915ZM15.9375 22.2746C15.9375 21.7568 15.5178 21.3371 15 21.3371C14.4822 21.3371 14.0625 21.7568 14.0625 22.2746V24.7746C14.0625 25.2923 14.4822 25.7121 15 25.7121C15.5178 25.7121 15.9375 25.2923 15.9375 24.7746V22.2746Z" fill="#999EA1"/>
</svg>
