<svg width="60" height="60" viewBox="0 0 60 60" fill="none" xmlns="http://www.w3.org/2000/svg">
<mask id="mask0_1_657" style="mask-type:alpha" maskUnits="userSpaceOnUse" x="0" y="0" width="60" height="60">
<circle cx="30" cy="30" r="30" fill="#000C14"/>
</mask>
<g mask="url(#mask0_1_657)">
<rect x="-6.5" y="-9" width="73" height="73" fill="white"/>
<rect x="-2.85001" y="-5.35" width="65.7" height="65.7" fill="white" fill-opacity="0.05"/>
<mask id="mask1_1_657" style="mask-type:alpha" maskUnits="userSpaceOnUse" x="-3" y="-6" width="66" height="67">
<rect x="-2.85001" y="-5.35" width="65.7" height="65.7" fill="white"/>
</mask>
<g mask="url(#mask1_1_657)">
<path fill-rule="evenodd" clip-rule="evenodd" d="M53.9009 52.7279C51.9642 49.9264 49.1089 47.89 45.8294 46.9713L38.2124 44.8376V39.3627C41.4324 36.9439 43.5471 33.1375 43.677 28.8318C44.1271 29.0301 44.6238 29.1426 45.1476 29.1426C47.1633 29.1426 48.7976 27.5084 48.7976 25.4926C48.7976 23.4767 47.1633 21.8426 45.1476 21.8426C44.628 21.8426 44.1349 21.9526 43.6876 22.1482V21.1126C43.6876 13.553 37.5594 7.42505 30.0001 7.42505H29.9999C22.4406 7.42505 16.3126 13.553 16.3126 21.1126V22.1482C15.8651 21.9526 15.372 21.8426 14.8526 21.8426C12.8367 21.8426 11.2026 23.4767 11.2026 25.4926C11.2026 27.5084 12.8367 29.1426 14.8526 29.1426C15.3762 29.1426 15.873 29.0303 16.3232 28.8318C16.4529 33.1375 18.5676 36.9439 21.7874 39.3627V44.8376L14.1706 46.9713C10.8911 47.89 8.03587 49.9264 6.09918 52.7279L0.80011 60.3938V65.8251H59.2001V60.3938L53.9009 52.7279Z" fill="#B5683C"/>
<path fill-rule="evenodd" clip-rule="evenodd" d="M30 42.1C28.3122 42.1 26.6967 41.7926 25.2039 41.234C27.3271 42.5904 29.8485 43.3775 32.555 43.3775C34.5734 43.3775 36.4876 42.9371 38.2125 42.1529V39.3627C35.9248 41.0811 33.0815 42.1 30 42.1Z" fill="#A3420B"/>
<path d="M16.7887 26.0252C16.8352 25.8556 16.8602 25.677 16.8602 25.4926C16.8602 24.384 15.9614 23.4851 14.8527 23.4851C14.5755 23.4851 14.3114 23.5414 14.0713 23.6428" stroke="#00004D" stroke-width="0.365" stroke-linecap="round" stroke-linejoin="round"/>
<path d="M43.2115 26.0252C43.165 25.8556 43.1402 25.677 43.1402 25.4926C43.1402 24.384 44.039 23.4851 45.1477 23.4851C45.4247 23.4851 45.6888 23.5414 45.9291 23.6428" stroke="#00004D" stroke-width="0.365" stroke-linecap="round" stroke-linejoin="round"/>
<path fill-rule="evenodd" clip-rule="evenodd" d="M33.65 33.7067C33.65 35.7226 32.0159 37.3567 30 37.3567C27.9841 37.3567 26.35 35.7226 26.35 33.7067H33.65Z" fill="white"/>
<path d="M34.2888 26.04C34.5704 25.3956 35.2135 24.945 35.9619 24.945C36.7104 24.945 37.3535 25.3956 37.6351 26.04" stroke="#00004D" stroke-width="0.365" stroke-linecap="round" stroke-linejoin="round"/>
<path fill-rule="evenodd" clip-rule="evenodd" d="M25.4375 26.04C25.4375 26.8464 24.7838 27.5 23.9775 27.5C23.1712 27.5 22.5175 26.8464 22.5175 26.04C22.5175 25.2337 23.1712 24.58 23.9775 24.58C24.7838 24.58 25.4375 25.2337 25.4375 26.04Z" fill="#00004D"/>
<path d="M29.9999 24.58L31.8249 30.785L29.2699 31.15" stroke="#00004D" stroke-width="0.365" stroke-linecap="round" stroke-linejoin="round"/>
<path fill-rule="evenodd" clip-rule="evenodd" d="M25.6858 15.5354C23.7866 18.7804 20.9115 21.3812 17.4659 22.9473C16.8569 22.322 16.0256 21.9176 15.0998 21.8554L15.5792 18.8202V18.82C15.8847 16.8854 16.5707 15.0775 17.5571 13.4739C18.4682 11.9934 19.6372 10.6904 21 9.62241C21.5327 9.20485 22.0942 8.82233 22.6826 8.48051C24.3346 7.52165 26.1912 6.8767 28.1713 6.62813C28.7703 6.55294 29.3804 6.51243 30 6.51243C32.6672 6.51243 35.1654 7.23129 37.3173 8.48051C39.4111 9.69614 41.1757 11.4146 42.4428 13.4739C43.4292 15.0775 44.1152 16.8854 44.4207 18.8202L44.8996 21.8517C43.9318 21.9172 43.0693 22.3613 42.4539 23.0352C35.9686 22.5326 30.1169 19.7716 25.6858 15.5354ZM21.7875 39.358C18.5706 36.9386 16.4528 33.136 16.3231 28.8316C15.8729 29.0302 15.3761 29.1424 14.8525 29.1424C14.5463 29.1424 14.2508 29.1008 13.9666 29.0296L11.75 43.0629H21.7875V39.358ZM45.1475 29.1425C44.6239 29.1425 44.127 29.0302 43.6767 28.8317C43.547 33.1361 41.4294 36.9387 38.2125 39.3579V43.0628H48.25L46.0334 29.0297C45.7492 29.1007 45.4537 29.1425 45.1475 29.1425Z" fill="#00004D"/>
<path fill-rule="evenodd" clip-rule="evenodd" d="M59.2 60.3938L53.9009 52.7279C51.9642 49.9265 49.109 47.89 45.8293 46.9713L42.5932 46.0646C41.5747 52.101 36.3258 56.7 30 56.7C23.6742 56.7 18.4253 52.101 17.4068 46.0646L14.1707 46.9713C10.891 47.89 8.03575 49.9265 6.09906 52.7279L0.799988 60.3938V65.825H59.2V60.3938Z" fill="#2384F5"/>
</g>
</g>
</svg>
